<svg width="32" height="32" viewBox="0 0 32 32" fill="none" xmlns="http://www.w3.org/2000/svg">
  <!-- Background circle -->
  <circle cx="16" cy="16" r="16" fill="#1e40af"/>
  <!-- Stylized S -->
  <path d="M12 10c0-1.5 1.5-2.5 3-2.5s3 1 3 2.5c0 1-.5 1.5-1.5 2l-1 1c-.5.5-1 1-1 1.5 0 .5.5 1 1 1s1-.5 1-1l1-1c.5-.5 1-1 1-1.5 0-1-.5-1.5-1.5-1.5s-1.5.5-1.5 1.5v1c0 .5.5 1 1 1s1-.5 1-1l1-1c.5-.5 1-1 1-1.5 0-1-.5-1.5-1.5-1.5s-1.5.5-1.5 1.5v.5c0 1 .5 1.5 1.5 2l1 1c1 1 2 2 2 3.5 0 2.5-2 4-4.5 4s-4.5-1.5-4.5-4c0-1.5.5-2.5 1.5-3.5l1-1c.5-.5 1-1 1-1.5 0-.5-.5-1-1-1s-1 .5-1 1l-1 1c-.5.5-1 1-1 1.5 0 1 .5 1.5 1.5 1.5s1.5-.5 1.5-1.5v-1c0-.5-.5-1-1-1s-1 .5-1 1l-1 1c-.5.5-1 1-1 1.5 0 1 .5 1.5 1.5 1.5s1.5-.5 1.5-1.5v-.5c0-1-.5-1.5-1.5-2l-1-1c-1-1-2-2-2-3.5z" fill="white"/>
</svg>
